<svg xmlns="http://www.w3.org/2000/svg" viewBox="0 0 130 120" width="130" height="120">
  <line x1="5" y1="30" x2="125" y2="30" stroke="#333" stroke-width="1"/>
  <line x1="5" y1="40" x2="125" y2="40" stroke="#333" stroke-width="1"/>
  <line x1="5" y1="50" x2="125" y2="50" stroke="#333" stroke-width="1"/>
  <line x1="5" y1="60" x2="125" y2="60" stroke="#333" stroke-width="1"/>
  <line x1="5" y1="70" x2="125" y2="70" stroke="#333" stroke-width="1"/>
  <g transform="translate(10, 30)"><line x1="0" y1="-8" x2="0" y2="8" stroke="#333" stroke-width="1.5"/><line x1="4" y1="-8" x2="4" y2="8" stroke="#333" stroke-width="1.5"/><line x1="-2" y1="-2" x2="6" y2="-4" stroke="#333" stroke-width="1.5"/><line x1="-2" y1="2" x2="6" y2="4" stroke="#333" stroke-width="1.5"/></g>
  <g transform="translate(20, 40)"><line x1="0" y1="-8" x2="0" y2="8" stroke="#333" stroke-width="1.5"/><line x1="4" y1="-8" x2="4" y2="8" stroke="#333" stroke-width="1.5"/><line x1="-2" y1="-2" x2="6" y2="-4" stroke="#333" stroke-width="1.5"/><line x1="-2" y1="2" x2="6" y2="4" stroke="#333" stroke-width="1.5"/></g>
  <g transform="translate(30, 35)"><line x1="0" y1="-8" x2="0" y2="8" stroke="#333" stroke-width="1.5"/><line x1="4" y1="-8" x2="4" y2="8" stroke="#333" stroke-width="1.5"/><line x1="-2" y1="-2" x2="6" y2="-4" stroke="#333" stroke-width="1.5"/><line x1="-2" y1="2" x2="6" y2="4" stroke="#333" stroke-width="1.5"/></g>
  <g transform="translate(40, 45)"><line x1="0" y1="-8" x2="0" y2="8" stroke="#333" stroke-width="1.5"/><line x1="4" y1="-8" x2="4" y2="8" stroke="#333" stroke-width="1.5"/><line x1="-2" y1="-2" x2="6" y2="-4" stroke="#333" stroke-width="1.5"/><line x1="-2" y1="2" x2="6" y2="4" stroke="#333" stroke-width="1.5"/></g>
  <g transform="translate(50, 40)"><line x1="0" y1="-8" x2="0" y2="8" stroke="#333" stroke-width="1.5"/><line x1="4" y1="-8" x2="4" y2="8" stroke="#333" stroke-width="1.5"/><line x1="-2" y1="-2" x2="6" y2="-4" stroke="#333" stroke-width="1.5"/><line x1="-2" y1="2" x2="6" y2="4" stroke="#333" stroke-width="1.5"/></g>
  <g transform="translate(60, 50)"><line x1="0" y1="-8" x2="0" y2="8" stroke="#333" stroke-width="1.5"/><line x1="4" y1="-8" x2="4" y2="8" stroke="#333" stroke-width="1.5"/><line x1="-2" y1="-2" x2="6" y2="-4" stroke="#333" stroke-width="1.5"/><line x1="-2" y1="2" x2="6" y2="4" stroke="#333" stroke-width="1.5"/></g>
  <g transform="translate(70, 45)"><line x1="0" y1="-8" x2="0" y2="8" stroke="#333" stroke-width="1.5"/><line x1="4" y1="-8" x2="4" y2="8" stroke="#333" stroke-width="1.5"/><line x1="-2" y1="-2" x2="6" y2="-4" stroke="#333" stroke-width="1.5"/><line x1="-2" y1="2" x2="6" y2="4" stroke="#333" stroke-width="1.5"/></g>
  <text x="65" y="95" font-family="Arial, sans-serif" font-size="12" text-anchor="middle" fill="#333">C# major</text>
  <text x="65" y="110" font-family="Arial, sans-serif" font-size="10" text-anchor="middle" fill="#666">A# minor</text>
</svg>
