<?xml version="1.0" standalone="no"?>
<!DOCTYPE svg PUBLIC "-//W3C//DTD SVG 1.1//EN" "http://www.w3.org/Graphics/SVG/1.1/DTD/svg11.dtd" >
<svg xmlns="http://www.w3.org/2000/svg" xmlns:xlink="http://www.w3.org/1999/xlink" version="1.1" viewBox="-10 0 370 1000">
   <path fill="currentColor"
d="M110 600l160 -500h80l-160 500h-80zM50 185h31v390q37 -37 84 -37q32 0 58 21.5t26 62.5q0 32 -19 59t-51 54l-69 59q-19 16 -34 31.5t-26 29.5v-670zM81 788q26 -28 44 -51.5t28 -41.5q11 -19 16.5 -35t5.5 -30q0 -28 -13 -40.5t-28 -12.5q-16 0 -31.5 11.5t-21.5 31.5
v168z" />
</svg>
